<svg xmlns="http://www.w3.org/2000/svg" width="375" viewBox="0 0 375 375" height="375" version="1.0"><defs><clipPath id="a"><path d="M 112.707031 260 L 133 260 L 133 280.996094 L 112.707031 280.996094 Z M 112.707031 260"/></clipPath><clipPath id="b"><path d="M 241 260 L 261.957031 260 L 261.957031 280.996094 L 241 280.996094 Z M 241 260"/></clipPath><clipPath id="c"><path d="M 112.707031 79.246094 L 133 79.246094 L 133 100 L 112.707031 100 Z M 112.707031 79.246094"/></clipPath><clipPath id="d"><path d="M 241 79.246094 L 261.957031 79.246094 L 261.957031 100 L 241 100 Z M 241 79.246094"/></clipPath></defs><path fill="#FFDE59" d="M 187.386719 323.777344 C 149.753906 323.777344 114.320312 309.128906 87.730469 282.484375 C 61.085938 255.894531 46.4375 220.460938 46.4375 182.828125 C 46.4375 145.195312 61.085938 109.761719 87.730469 83.171875 C 114.320312 56.523438 149.753906 41.878906 187.386719 41.878906 C 225.019531 41.878906 260.453125 56.523438 287.042969 83.171875 C 313.691406 109.816406 328.335938 145.195312 328.335938 182.828125 C 328.335938 220.460938 313.691406 255.894531 287.042969 282.484375 C 260.453125 309.128906 225.019531 323.777344 187.386719 323.777344 Z M 187.386719 50.328125 C 152.007812 50.328125 118.714844 64.128906 93.703125 89.140625 C 68.691406 114.15625 54.886719 147.449219 54.886719 182.828125 C 54.886719 218.207031 68.691406 251.5 93.703125 276.511719 C 118.714844 301.523438 152.007812 315.328125 187.386719 315.328125 C 222.765625 315.328125 256.058594 301.523438 281.070312 276.511719 C 306.085938 251.5 319.886719 218.207031 319.886719 182.828125 C 319.886719 147.449219 306.085938 114.15625 281.070312 89.140625 C 256.058594 64.128906 222.765625 50.328125 187.386719 50.328125 Z M 187.386719 50.328125"/><path fill="#96D2E2" d="M 238.296875 120.898438 C 236.960938 122.019531 235.007812 121.9375 233.75 120.734375 C 228.25 115.460938 212.277344 102.535156 187.910156 102.535156 C 163.539062 102.535156 149.519531 115.09375 144.679688 120.410156 C 143.519531 121.683594 141.582031 121.867188 140.1875 120.859375 L 139.75 120.546875 C 138.082031 119.347656 137.835938 116.960938 139.226562 115.441406 C 144.972656 109.148438 160.820312 95.132812 187.914062 95.132812 C 215.167969 95.132812 232.667969 109.320312 238.949219 115.449219 C 240.398438 116.859375 240.292969 119.222656 238.746094 120.519531 Z M 238.296875 120.898438"/><path fill="#96D2E2" d="M 130.476562 166.738281 L 129.988281 166.648438 C 128.007812 166.292969 126.761719 164.3125 127.296875 162.367188 C 130.65625 150.109375 144.851562 111.09375 189.238281 111.089844 C 231.566406 111.085938 243.347656 147.140625 246.066406 158.949219 C 246.519531 160.921875 245.167969 162.847656 243.164062 163.105469 L 242.675781 163.167969 C 240.914062 163.394531 239.277344 162.226562 238.902344 160.484375 C 236.675781 150.222656 226.757812 118.492188 189.242188 118.492188 C 189.238281 118.492188 189.238281 118.492188 189.238281 118.492188 C 149.359375 118.496094 137.191406 153.433594 134.382812 164.238281 C 133.933594 165.972656 132.230469 167.054688 130.476562 166.738281 Z M 130.476562 166.738281"/><path fill="#96D2E2" d="M 247.503906 189.421875 C 247.386719 191.507812 245.457031 193.039062 243.417969 192.601562 C 234.835938 190.761719 224.886719 184.273438 225.296875 171.078125 C 225.570312 162.179688 222.871094 155.753906 221.078125 152.511719 C 220.273438 151.054688 220.636719 149.242188 221.929688 148.195312 L 222.355469 147.855469 C 223.992188 146.53125 226.4375 146.976562 227.460938 148.820312 C 229.753906 152.949219 232.996094 160.734375 232.667969 171.308594 C 232.367188 181.113281 240.453125 184.289062 244.890625 185.292969 C 246.515625 185.664062 247.628906 187.152344 247.535156 188.824219 Z M 247.503906 189.421875"/><path fill="#96D2E2" d="M 142.441406 235.867188 L 142.214844 235.332031 C 141.574219 233.828125 142.101562 232.101562 143.4375 231.160156 C 151.242188 225.65625 147.03125 214.398438 146.339844 212.703125 C 128.328125 174.902344 146.886719 150.070312 159.558594 138.625 C 165.601562 133.171875 172.667969 129.328125 179.996094 127.519531 C 198.886719 122.851562 211.683594 131.011719 217.0625 135.570312 C 218.660156 136.925781 218.65625 139.394531 217.074219 140.765625 L 216.667969 141.121094 C 215.398438 142.226562 213.523438 142.25 212.242188 141.164062 C 208.007812 137.582031 197.5 130.816406 181.761719 134.707031 C 175.605469 136.226562 169.636719 139.488281 164.492188 144.128906 C 153.34375 154.199219 137.027344 176.089844 153.035156 209.59375 L 153.101562 209.75 C 155.988281 216.582031 158.03125 230.320312 147.410156 237.421875 C 145.660156 238.59375 143.265625 237.808594 142.441406 235.867188 Z M 142.441406 235.867188"/><path fill="#96D2E2" d="M 164.375 244.15625 C 162.589844 245.425781 160.085938 244.644531 159.269531 242.609375 L 157.972656 239.378906 L 159.351562 242.8125 L 159.074219 242.136719 C 158.480469 240.679688 158.921875 238.976562 160.199219 238.054688 C 161.761719 236.925781 163.761719 235.042969 164.875 232.261719 C 166.378906 228.5 165.976562 223.898438 163.671875 218.582031 C 157.761719 204.9375 152.117188 178.027344 160.800781 159.820312 C 164.925781 151.175781 171.679688 145.503906 180.882812 142.972656 C 190.757812 140.253906 199.179688 141.296875 205.914062 146.070312 C 217.828125 154.519531 219.949219 171.757812 220.226562 174.65625 C 220.238281 174.777344 220.253906 174.890625 220.277344 175.007812 C 222.371094 186.136719 226.449219 193.765625 232.394531 197.683594 C 235.871094 199.976562 239.324219 200.5 241.582031 200.539062 C 243.144531 200.566406 244.476562 201.664062 244.828125 203.191406 L 244.953125 203.730469 C 245.449219 205.898438 243.800781 207.960938 241.585938 207.933594 C 238.230469 207.894531 233.296875 207.140625 228.347656 203.875 C 220.585938 198.757812 215.410156 189.378906 212.953125 175.988281 L 212.902344 175.589844 C 212.890625 175.429688 211.542969 159.105469 201.632812 152.101562 C 196.792969 148.679688 190.472656 148.011719 182.835938 150.113281 C 175.789062 152.054688 170.613281 156.394531 167.457031 163.015625 C 159.894531 178.875 165.269531 203.707031 170.4375 215.632812 C 173.578125 222.886719 173.996094 229.453125 171.667969 235.148438 C 169.878906 239.527344 166.808594 242.425781 164.375 244.15625 Z M 164.375 244.15625"/><path fill="#96D2E2" d="M 214.714844 265.601562 C 214.46875 267.679688 212.441406 269.054688 210.429688 268.503906 C 205.300781 267.101562 195.953125 263.425781 187.941406 254.210938 C 184.382812 250.113281 181.363281 247.984375 178.972656 247.882812 C 175.917969 247.746094 172.464844 250.871094 168.265625 254.957031 C 160.371094 262.640625 149.875 258.464844 144.613281 255.519531 C 142.800781 254.507812 142.300781 252.128906 143.542969 250.464844 L 145.753906 247.507812 L 143.542969 250.46875 L 143.871094 250.027344 C 144.898438 248.640625 146.785156 248.257812 148.292969 249.097656 C 151.949219 251.132812 158.742188 253.910156 163.128906 249.640625 C 168.617188 244.300781 173.328125 240.242188 179.28125 240.484375 C 183.898438 240.679688 188.417969 243.492188 193.5 249.339844 C 200.246094 257.101562 208.207031 260.191406 212.339844 261.339844 C 213.953125 261.789062 214.980469 263.375 214.78125 265.039062 Z M 214.714844 265.601562"/><path fill="#96D2E2" d="M 189.5 272.886719 C 181.410156 266.066406 171.917969 267.675781 167.375 269.042969 C 165.773438 269.527344 164.066406 268.734375 163.347656 267.222656 L 163.09375 266.695312 C 162.195312 264.804688 163.167969 262.550781 165.164062 261.933594 C 172.582031 259.644531 184.492188 258.972656 194.28125 267.25 C 195.859375 268.582031 195.921875 271 194.414062 272.40625 L 193.9375 272.847656 C 192.691406 274.007812 190.804688 273.984375 189.5 272.886719 Z M 189.5 272.886719"/><path fill="#96D2E2" d="M 220.6875 257.53125 L 220.148438 257.464844 C 218.46875 257.265625 217.242188 255.855469 217.136719 254.15625 C 216.882812 249.875 214.710938 248.296875 213.824219 247.828125 C 213.660156 247.742188 213.496094 247.679688 213.320312 247.625 C 186.707031 239.394531 170.800781 218.460938 168.519531 188.640625 L 168.46875 187.988281 C 168.027344 182.699219 169.210938 169.40625 175.675781 162.058594 C 178.570312 158.769531 182.292969 156.941406 186.4375 156.773438 C 195.820312 156.40625 200.082031 161.464844 201.78125 164.523438 C 203.101562 166.898438 203.789062 169.769531 203.765625 172.824219 C 203.507812 206.40625 227.390625 214.0625 235.996094 215.726562 C 237.703125 216.058594 238.878906 217.621094 238.742188 219.359375 L 238.707031 219.832031 C 238.546875 221.894531 236.625 223.351562 234.613281 222.925781 C 224.207031 220.71875 196.09375 211.195312 196.386719 172.769531 C 196.402344 170.992188 196.039062 169.386719 195.339844 168.128906 C 193.765625 165.292969 190.964844 164.003906 186.738281 164.171875 C 184.589844 164.257812 182.78125 165.171875 181.207031 166.960938 C 176.6875 172.09375 175.453125 182.960938 175.816406 187.371094 L 175.875 188.074219 C 177.945312 215.136719 191.742188 233.3125 215.773438 240.632812 C 218.882812 241.640625 224.046875 245.601562 224.503906 253.867188 C 224.625 256.023438 222.820312 257.785156 220.6875 257.53125 Z M 220.6875 257.53125"/><path fill="#96D2E2" d="M 195.277344 218.820312 C 180.015625 203.292969 181.023438 183.691406 182.277344 175.5625 C 182.589844 173.535156 184.570312 172.21875 186.542969 172.753906 L 187.09375 172.902344 C 188.773438 173.355469 189.820312 175.007812 189.554688 176.734375 C 188.5 183.515625 187.546875 200.324219 200.472656 213.5625 C 201.730469 214.851562 201.820312 216.886719 200.632812 218.242188 L 200.277344 218.652344 C 198.972656 220.144531 196.667969 220.234375 195.277344 218.820312 Z M 195.277344 218.820312"/><path fill="#96D2E2" d="M 229.988281 239.136719 C 220.855469 237.386719 210.9375 231.34375 206.121094 228.113281 C 204.496094 227.023438 204.121094 224.792969 205.289062 223.222656 L 205.617188 222.777344 C 206.707031 221.3125 208.746094 220.964844 210.261719 221.980469 C 214.636719 224.90625 223.605469 230.402344 231.277344 231.859375 C 232.9375 232.175781 234.105469 233.667969 234.035156 235.359375 L 234.011719 235.898438 C 233.925781 237.980469 232.023438 239.527344 229.988281 239.136719 Z M 229.988281 239.136719"/><g clip-path="url(#a)"><path fill="#C1D9EA" d="M 118.324219 271.394531 L 118.324219 263.75 C 118.324219 262.226562 117.09375 260.992188 115.578125 260.992188 C 114.058594 260.992188 112.828125 262.226562 112.828125 263.75 L 112.828125 275.445312 C 112.828125 278.488281 115.289062 280.960938 118.324219 280.960938 L 129.976562 280.960938 C 131.492188 280.960938 132.722656 279.722656 132.722656 278.203125 L 132.722656 278.199219 C 132.722656 276.679688 131.492188 275.441406 129.976562 275.441406 L 122.359375 275.441406 C 120.132812 275.441406 118.324219 273.628906 118.324219 271.394531 Z M 118.324219 271.394531"/></g><g clip-path="url(#b)"><path fill="#C1D9EA" d="M 256.390625 271.394531 L 256.390625 263.75 C 256.390625 262.226562 257.621094 260.992188 259.136719 260.992188 C 260.65625 260.992188 261.886719 262.226562 261.886719 263.75 L 261.886719 275.445312 C 261.886719 278.488281 259.425781 280.960938 256.390625 280.960938 L 244.738281 280.960938 C 243.222656 280.960938 241.992188 279.722656 241.992188 278.203125 L 241.992188 278.199219 C 241.992188 276.679688 243.222656 275.441406 244.738281 275.441406 L 252.355469 275.441406 C 254.582031 275.441406 256.390625 273.628906 256.390625 271.394531 Z M 256.390625 271.394531"/></g><g clip-path="url(#c)"><path fill="#C1D9EA" d="M 118.324219 88.792969 L 118.324219 96.4375 C 118.324219 97.960938 117.09375 99.195312 115.578125 99.195312 C 114.058594 99.195312 112.828125 97.960938 112.828125 96.4375 L 112.828125 84.746094 C 112.828125 81.699219 115.289062 79.226562 118.324219 79.226562 L 129.976562 79.226562 C 131.492188 79.226562 132.722656 80.464844 132.722656 81.984375 C 132.722656 83.507812 131.492188 84.746094 129.976562 84.746094 L 122.359375 84.746094 C 120.132812 84.746094 118.324219 86.558594 118.324219 88.792969 Z M 118.324219 88.792969"/></g><g clip-path="url(#d)"><path fill="#C1D9EA" d="M 256.390625 88.792969 L 256.390625 96.4375 C 256.390625 97.960938 257.621094 99.195312 259.136719 99.195312 C 260.65625 99.195312 261.886719 97.960938 261.886719 96.4375 L 261.886719 84.746094 C 261.886719 81.699219 259.425781 79.226562 256.390625 79.226562 L 244.738281 79.226562 C 243.222656 79.226562 241.992188 80.464844 241.992188 81.984375 C 241.992188 83.507812 243.222656 84.746094 244.738281 84.746094 L 252.355469 84.746094 C 254.582031 84.746094 256.390625 86.558594 256.390625 88.792969 Z M 256.390625 88.792969"/></g><path fill="#FF6F6C" d="M 194.414062 272.40625 L 193.9375 272.847656 C 192.691406 274.007812 190.804688 273.984375 189.5 272.886719 C 181.410156 266.066406 171.917969 267.675781 167.375 269.042969 C 165.773438 269.527344 164.066406 268.734375 163.347656 267.222656 L 163.09375 266.695312 C 162.195312 264.804688 163.167969 262.550781 165.164062 261.933594 C 172.582031 259.644531 184.492188 258.972656 194.28125 267.25 C 195.855469 268.578125 195.921875 271 194.414062 272.40625 Z M 214.78125 265.042969 L 214.714844 265.601562 C 214.46875 267.679688 212.441406 269.054688 210.429688 268.503906 C 205.300781 267.101562 195.953125 263.425781 187.941406 254.210938 C 184.382812 250.113281 181.363281 247.984375 178.972656 247.882812 C 175.917969 247.746094 172.464844 250.871094 168.265625 254.957031 C 160.371094 262.640625 149.875 258.464844 144.613281 255.519531 C 142.800781 254.507812 142.300781 252.128906 143.542969 250.464844 L 143.542969 250.46875 L 143.542969 250.464844 L 143.554688 250.453125 L 143.871094 250.027344 C 143.871094 250.023438 143.875 250.023438 143.878906 250.019531 L 145.753906 247.507812 L 143.878906 250.019531 C 144.914062 248.640625 146.789062 248.261719 148.292969 249.097656 C 151.949219 251.132812 158.742188 253.910156 163.128906 249.640625 C 168.617188 244.300781 173.328125 240.242188 179.28125 240.488281 C 183.898438 240.679688 188.417969 243.492188 193.5 249.339844 C 200.246094 257.101562 208.207031 260.191406 212.339844 261.339844 C 213.953125 261.789062 214.980469 263.375 214.78125 265.042969 Z M 234.011719 235.898438 C 233.925781 237.980469 232.027344 239.527344 229.988281 239.136719 C 220.855469 237.386719 210.9375 231.34375 206.121094 228.113281 C 204.496094 227.023438 204.121094 224.792969 205.289062 223.222656 L 205.617188 222.777344 C 206.707031 221.3125 208.746094 220.964844 210.261719 221.980469 C 214.636719 224.90625 223.605469 230.402344 231.277344 231.859375 C 232.9375 232.175781 234.105469 233.667969 234.035156 235.359375 Z M 234.011719 235.898438"/><path fill="#FF6F6C" d="M 243.417969 192.605469 C 245.457031 193.039062 247.386719 191.507812 247.503906 189.421875 L 247.535156 188.824219 C 247.628906 187.152344 246.515625 185.664062 244.890625 185.292969 C 242.25 184.699219 238.320312 183.316406 235.632812 180.234375 L 226.976562 180.234375 C 230.117188 187.390625 237.125 191.253906 243.417969 192.605469 Z M 243.417969 192.605469"/><path fill="#FF6F6C" d="M 146.339844 212.703125 C 147.03125 214.394531 151.242188 225.65625 143.4375 231.160156 C 142.101562 232.101562 141.570312 233.828125 142.210938 235.332031 L 142.441406 235.867188 C 143.265625 237.808594 145.660156 238.59375 147.410156 237.421875 C 158.03125 230.320312 155.988281 216.582031 153.101562 209.75 L 153.035156 209.59375 C 147.75 198.539062 146.003906 188.753906 146.414062 180.234375 L 138.910156 180.234375 C 138.542969 189.707031 140.539062 200.527344 146.339844 212.703125 Z M 146.339844 212.703125"/><path fill="#FF6F6C" d="M 163.671875 218.582031 C 165.976562 223.898438 166.378906 228.5 164.875 232.261719 C 163.761719 235.042969 161.761719 236.925781 160.199219 238.054688 C 158.941406 238.964844 158.496094 240.632812 159.058594 242.078125 L 159.269531 242.609375 C 160.085938 244.644531 162.589844 245.425781 164.375 244.15625 C 166.808594 242.421875 169.878906 239.527344 171.667969 235.144531 C 173.996094 229.453125 173.578125 222.886719 170.4375 215.632812 C 166.917969 207.511719 163.308594 193.414062 163.746094 180.234375 L 156.375 180.234375 C 155.9375 194.578125 159.742188 209.511719 163.671875 218.582031 Z M 163.671875 218.582031"/><path fill="#FF6F6C" d="M 228.347656 203.875 C 233.296875 207.140625 238.230469 207.894531 241.585938 207.933594 C 243.800781 207.960938 245.449219 205.898438 244.953125 203.730469 L 244.828125 203.191406 C 244.476562 201.664062 243.144531 200.566406 241.582031 200.539062 C 239.324219 200.5 235.871094 199.976562 232.394531 197.683594 C 227.433594 194.414062 223.777344 188.550781 221.484375 180.234375 L 213.863281 180.234375 C 216.578125 191.375 221.4375 199.320312 228.347656 203.875 Z M 228.347656 203.875"/><path fill="#FF6F6C" d="M 157.972656 239.378906 L 159.058594 242.078125 Z M 157.972656 239.378906"/><path fill="#FF6F6C" d="M 159.058594 242.078125 C 159.066406 242.097656 159.066406 242.117188 159.074219 242.136719 L 159.351562 242.8125 L 159.269531 242.609375 Z M 159.058594 242.078125"/><path fill="#FF6F6C" d="M 159.269531 242.589844 L 159.054688 242.058594 Z M 159.269531 242.589844"/><path fill="#FF6F6C" d="M 143.871094 250.027344 L 143.554688 250.453125 L 143.878906 250.015625 C 143.875 250.023438 143.871094 250.023438 143.871094 250.027344 Z M 143.871094 250.027344"/><path fill="#FF6F6C" d="M 143.878906 250.015625 L 143.554688 250.453125 L 143.542969 250.464844 Z M 143.878906 250.015625"/><path fill="#FF6F6C" d="M 145.757812 247.507812 L 143.878906 250.015625 Z M 145.757812 247.507812"/><path fill="#FF6F6C" d="M 143.542969 250.464844 L 143.554688 250.453125 Z M 143.542969 250.464844"/><path fill="#FF6F6C" d="M 212.339844 261.339844 C 208.207031 260.191406 200.246094 257.101562 193.5 249.34375 C 188.417969 243.496094 183.898438 240.679688 179.28125 240.488281 C 173.328125 240.242188 168.617188 244.300781 163.128906 249.640625 C 158.742188 253.910156 151.949219 251.132812 148.292969 249.097656 C 146.789062 248.261719 144.914062 248.640625 143.878906 250.019531 L 143.542969 250.464844 C 142.300781 252.128906 142.800781 254.507812 144.613281 255.519531 C 149.875 258.464844 160.371094 262.644531 168.265625 254.957031 C 172.464844 250.871094 175.917969 247.746094 178.972656 247.882812 C 181.363281 247.984375 184.382812 250.113281 187.941406 254.210938 C 195.953125 263.425781 205.300781 267.101562 210.429688 268.503906 C 212.445312 269.054688 214.46875 267.679688 214.714844 265.601562 L 214.78125 265.042969 C 214.980469 263.375 213.953125 261.789062 212.339844 261.339844 Z M 212.339844 261.339844"/><path fill="#FF6F6C" d="M 165.164062 261.933594 C 163.167969 262.550781 162.195312 264.804688 163.09375 266.695312 L 163.347656 267.222656 C 164.066406 268.734375 165.773438 269.527344 167.375 269.042969 C 171.917969 267.675781 181.410156 266.066406 189.5 272.886719 C 190.800781 273.984375 192.691406 274.007812 193.9375 272.847656 L 194.410156 272.40625 C 195.921875 271 195.855469 268.578125 194.28125 267.25 C 184.492188 258.972656 172.582031 259.644531 165.164062 261.933594 Z M 165.164062 261.933594"/><path fill="#FF6F6C" d="M 168.46875 187.988281 L 168.519531 188.640625 C 170.804688 218.460938 186.710938 239.394531 213.320312 247.625 C 213.496094 247.679688 213.664062 247.742188 213.824219 247.828125 C 214.710938 248.296875 216.882812 249.875 217.140625 254.15625 C 217.242188 255.855469 218.46875 257.265625 220.152344 257.464844 L 220.6875 257.53125 C 222.820312 257.785156 224.625 256.023438 224.503906 253.871094 C 224.046875 245.605469 218.882812 241.644531 215.773438 240.636719 C 191.742188 233.316406 177.945312 215.140625 175.875 188.074219 L 175.820312 187.375 C 175.679688 185.703125 175.773438 183.101562 176.1875 180.238281 L 168.75 180.238281 C 168.367188 183.386719 168.316406 186.167969 168.46875 187.988281 Z M 168.46875 187.988281"/><path fill="#FF6F6C" d="M 234.613281 222.925781 C 236.625 223.351562 238.546875 221.894531 238.707031 219.832031 L 238.746094 219.359375 C 238.882812 217.621094 237.703125 216.058594 235.996094 215.730469 C 228.0625 214.191406 207.175781 207.554688 204.144531 180.234375 L 196.722656 180.234375 C 199.867188 212.449219 224.917969 220.871094 234.613281 222.925781 Z M 234.613281 222.925781"/><path fill="#FF6F6C" d="M 195.277344 218.820312 C 196.664062 220.234375 198.972656 220.144531 200.277344 218.652344 L 200.632812 218.242188 C 201.820312 216.886719 201.730469 214.851562 200.472656 213.5625 C 189.402344 202.222656 188.515625 188.269531 189.148438 180.234375 L 181.761719 180.234375 C 181.113281 189.808594 182.4375 205.753906 195.277344 218.820312 Z M 195.277344 218.820312"/><path fill="#FF6F6C" d="M 231.277344 231.859375 C 223.605469 230.402344 214.636719 224.90625 210.261719 221.980469 C 208.746094 220.964844 206.707031 221.3125 205.617188 222.777344 L 205.289062 223.222656 C 204.121094 224.792969 204.496094 227.023438 206.121094 228.113281 C 210.9375 231.34375 220.855469 237.386719 229.988281 239.136719 C 232.023438 239.527344 233.921875 237.980469 234.011719 235.898438 L 234.035156 235.359375 C 234.105469 233.667969 232.9375 232.175781 231.277344 231.859375 Z M 231.277344 231.859375"/><path fill="#FC4C4C" d="M 254.992188 183.925781 L 119.722656 183.925781 C 117.976562 183.925781 116.566406 182.507812 116.566406 180.757812 C 116.566406 179.007812 117.976562 177.589844 119.722656 177.589844 L 254.992188 177.589844 C 256.738281 177.589844 258.148438 179.007812 258.148438 180.757812 C 258.148438 182.507812 256.738281 183.925781 254.992188 183.925781 Z M 254.992188 183.925781"/></svg>